<mxfile host="app.diagrams.net" modified="2023-06-08T06:23:18.027Z" agent="Mozilla/5.0 (Windows NT 10.0; Win64; x64) AppleWebKit/537.36 (KHTML, like Gecko) Chrome/113.0.0.0 Safari/537.36" version="21.3.2" etag="-smFOvPjY0821_JGbsVL" type="github">
  <diagram name="第 1 页" id="62kFELT9x6iCUjwGjMxL">
    <mxGraphModel>
      <root>
        <mxCell id="0" />
        <mxCell id="1" parent="0" />
      </root>
    </mxGraphModel>
  </diagram>
</mxfile>
